<mxfile host="app.diagrams.net" agent="Mozilla/5.0 (Windows NT 10.0; Win64; x64) AppleWebKit/537.36 (KHTML, like Gecko) Chrome/136.0.0.0 Safari/537.36" version="27.0.4">
  <diagram name="Seite-1" id="B0Kl5nqPuBo-3DwaOtfP">
    <mxGraphModel dx="3679" dy="1486" grid="1" gridSize="10" guides="1" tooltips="1" connect="1" arrows="1" fold="1" page="1" pageScale="1" pageWidth="827" pageHeight="1169" math="0" shadow="0">
      <root>
        <mxCell id="0" />
        <mxCell id="1" parent="0" />
        <mxCell id="u1XY0rb8eev2db07J_sc-16" value="" style="edgeStyle=orthogonalEdgeStyle;rounded=0;orthogonalLoop=1;jettySize=auto;html=1;" edge="1" parent="1" source="u1XY0rb8eev2db07J_sc-1" target="u1XY0rb8eev2db07J_sc-4">
          <mxGeometry relative="1" as="geometry" />
        </mxCell>
        <mxCell id="u1XY0rb8eev2db07J_sc-1" value="" style="shape=mxgraph.networks2.icon;aspect=fixed;fillColor=#EDEDED;strokeColor=#000000;gradientColor=#5B6163;network2IconShadow=1;network2bgFillColor=none;network2Icon=mxgraph.networks2.pc;network2IconYOffset=-0.0593;network2IconW=0.9999;network2IconH=0.7096;" vertex="1" parent="1">
          <mxGeometry x="-720" y="480.48" width="110" height="78.06" as="geometry" />
        </mxCell>
        <mxCell id="u1XY0rb8eev2db07J_sc-15" style="edgeStyle=orthogonalEdgeStyle;rounded=0;orthogonalLoop=1;jettySize=auto;html=1;entryX=0;entryY=0.5;entryDx=0;entryDy=0;exitX=1.003;exitY=0.135;exitDx=0;exitDy=0;exitPerimeter=0;" edge="1" parent="1" source="u1XY0rb8eev2db07J_sc-4" target="u1XY0rb8eev2db07J_sc-5">
          <mxGeometry relative="1" as="geometry" />
        </mxCell>
        <mxCell id="u1XY0rb8eev2db07J_sc-24" value="" style="edgeStyle=orthogonalEdgeStyle;rounded=0;orthogonalLoop=1;jettySize=auto;html=1;exitX=0.998;exitY=0.318;exitDx=0;exitDy=0;exitPerimeter=0;" edge="1" parent="1" source="u1XY0rb8eev2db07J_sc-4" target="u1XY0rb8eev2db07J_sc-20">
          <mxGeometry relative="1" as="geometry" />
        </mxCell>
        <mxCell id="u1XY0rb8eev2db07J_sc-33" style="edgeStyle=orthogonalEdgeStyle;rounded=0;orthogonalLoop=1;jettySize=auto;html=1;" edge="1" parent="1" source="u1XY0rb8eev2db07J_sc-4" target="u1XY0rb8eev2db07J_sc-28">
          <mxGeometry relative="1" as="geometry" />
        </mxCell>
        <mxCell id="u1XY0rb8eev2db07J_sc-38" style="edgeStyle=orthogonalEdgeStyle;rounded=0;orthogonalLoop=1;jettySize=auto;html=1;exitX=0.999;exitY=0.635;exitDx=0;exitDy=0;exitPerimeter=0;" edge="1" parent="1" source="u1XY0rb8eev2db07J_sc-4" target="u1XY0rb8eev2db07J_sc-6">
          <mxGeometry relative="1" as="geometry" />
        </mxCell>
        <mxCell id="u1XY0rb8eev2db07J_sc-4" value="Gitlab Server" style="rounded=0;whiteSpace=wrap;html=1;fillColor=#1ba1e2;fontColor=#ffffff;strokeColor=#006EAF;" vertex="1" parent="1">
          <mxGeometry x="-480" y="80" width="120" height="880" as="geometry" />
        </mxCell>
        <mxCell id="u1XY0rb8eev2db07J_sc-12" style="edgeStyle=orthogonalEdgeStyle;rounded=0;orthogonalLoop=1;jettySize=auto;html=1;entryX=0.5;entryY=1;entryDx=0;entryDy=0;" edge="1" parent="1" target="u1XY0rb8eev2db07J_sc-7">
          <mxGeometry relative="1" as="geometry">
            <mxPoint x="-300" y="160" as="sourcePoint" />
          </mxGeometry>
        </mxCell>
        <mxCell id="u1XY0rb8eev2db07J_sc-13" style="edgeStyle=orthogonalEdgeStyle;rounded=0;orthogonalLoop=1;jettySize=auto;html=1;entryX=0.5;entryY=1;entryDx=0;entryDy=0;" edge="1" parent="1">
          <mxGeometry relative="1" as="geometry">
            <mxPoint x="-250.38" y="160" as="sourcePoint" />
            <mxPoint x="-250.63" y="119.52000000000004" as="targetPoint" />
          </mxGeometry>
        </mxCell>
        <mxCell id="u1XY0rb8eev2db07J_sc-14" style="edgeStyle=orthogonalEdgeStyle;rounded=0;orthogonalLoop=1;jettySize=auto;html=1;entryX=0.5;entryY=1;entryDx=0;entryDy=0;" edge="1" parent="1" target="u1XY0rb8eev2db07J_sc-9">
          <mxGeometry relative="1" as="geometry">
            <mxPoint x="-195" y="160" as="sourcePoint" />
          </mxGeometry>
        </mxCell>
        <mxCell id="u1XY0rb8eev2db07J_sc-5" value="Gitlab CI&lt;br&gt;(PUSH on DEV)" style="rounded=0;whiteSpace=wrap;html=1;fillColor=#60a917;fontColor=#ffffff;strokeColor=#2D7600;" vertex="1" parent="1">
          <mxGeometry x="-320" y="160.48" width="150" height="39.52" as="geometry" />
        </mxCell>
        <mxCell id="u1XY0rb8eev2db07J_sc-36" style="edgeStyle=orthogonalEdgeStyle;rounded=0;orthogonalLoop=1;jettySize=auto;html=1;entryX=0;entryY=0.5;entryDx=0;entryDy=0;exitX=1.01;exitY=0.335;exitDx=0;exitDy=0;exitPerimeter=0;" edge="1" parent="1" source="u1XY0rb8eev2db07J_sc-6" target="u1XY0rb8eev2db07J_sc-34">
          <mxGeometry relative="1" as="geometry" />
        </mxCell>
        <mxCell id="u1XY0rb8eev2db07J_sc-37" style="edgeStyle=orthogonalEdgeStyle;rounded=0;orthogonalLoop=1;jettySize=auto;html=1;exitX=0.994;exitY=0.662;exitDx=0;exitDy=0;entryX=0;entryY=0.5;entryDx=0;entryDy=0;exitPerimeter=0;" edge="1" parent="1" source="u1XY0rb8eev2db07J_sc-6" target="u1XY0rb8eev2db07J_sc-35">
          <mxGeometry relative="1" as="geometry">
            <mxPoint x="-130.00000000000023" y="730" as="targetPoint" />
          </mxGeometry>
        </mxCell>
        <mxCell id="u1XY0rb8eev2db07J_sc-6" value="Gitlab CI&lt;br&gt;(Merge Request)" style="rounded=0;whiteSpace=wrap;html=1;fillColor=#60a917;fontColor=#ffffff;strokeColor=#2D7600;" vertex="1" parent="1">
          <mxGeometry x="-320" y="560" width="150" height="240" as="geometry" />
        </mxCell>
        <mxCell id="u1XY0rb8eev2db07J_sc-7" value="Build" style="rounded=0;whiteSpace=wrap;html=1;" vertex="1" parent="1">
          <mxGeometry x="-320" y="80" width="40" height="39.52" as="geometry" />
        </mxCell>
        <mxCell id="u1XY0rb8eev2db07J_sc-8" value="Test" style="rounded=0;whiteSpace=wrap;html=1;" vertex="1" parent="1">
          <mxGeometry x="-270" y="80" width="39.5" height="39.52" as="geometry" />
        </mxCell>
        <mxCell id="u1XY0rb8eev2db07J_sc-9" value="Deploy&lt;br&gt;DEV System" style="rounded=0;whiteSpace=wrap;html=1;" vertex="1" parent="1">
          <mxGeometry x="-220" y="80" width="100" height="39.52" as="geometry" />
        </mxCell>
        <mxCell id="u1XY0rb8eev2db07J_sc-17" style="edgeStyle=orthogonalEdgeStyle;rounded=0;orthogonalLoop=1;jettySize=auto;html=1;entryX=0.5;entryY=1;entryDx=0;entryDy=0;" edge="1" parent="1" target="u1XY0rb8eev2db07J_sc-21">
          <mxGeometry relative="1" as="geometry">
            <mxPoint x="-300" y="320" as="sourcePoint" />
          </mxGeometry>
        </mxCell>
        <mxCell id="u1XY0rb8eev2db07J_sc-18" style="edgeStyle=orthogonalEdgeStyle;rounded=0;orthogonalLoop=1;jettySize=auto;html=1;entryX=0.5;entryY=1;entryDx=0;entryDy=0;" edge="1" parent="1">
          <mxGeometry relative="1" as="geometry">
            <mxPoint x="-250.38" y="320" as="sourcePoint" />
            <mxPoint x="-250.63" y="279.52000000000004" as="targetPoint" />
          </mxGeometry>
        </mxCell>
        <mxCell id="u1XY0rb8eev2db07J_sc-19" style="edgeStyle=orthogonalEdgeStyle;rounded=0;orthogonalLoop=1;jettySize=auto;html=1;entryX=0.5;entryY=1;entryDx=0;entryDy=0;" edge="1" parent="1" target="u1XY0rb8eev2db07J_sc-23">
          <mxGeometry relative="1" as="geometry">
            <mxPoint x="-195" y="320" as="sourcePoint" />
          </mxGeometry>
        </mxCell>
        <mxCell id="u1XY0rb8eev2db07J_sc-20" value="Gitlab CI&lt;br&gt;(PUSH on STAGING)" style="rounded=0;whiteSpace=wrap;html=1;fillColor=#60a917;fontColor=#ffffff;strokeColor=#2D7600;" vertex="1" parent="1">
          <mxGeometry x="-320" y="320.48" width="150" height="39.52" as="geometry" />
        </mxCell>
        <mxCell id="u1XY0rb8eev2db07J_sc-21" value="Build" style="rounded=0;whiteSpace=wrap;html=1;" vertex="1" parent="1">
          <mxGeometry x="-320" y="240" width="40" height="39.52" as="geometry" />
        </mxCell>
        <mxCell id="u1XY0rb8eev2db07J_sc-22" value="Test" style="rounded=0;whiteSpace=wrap;html=1;" vertex="1" parent="1">
          <mxGeometry x="-270" y="240" width="39.5" height="39.52" as="geometry" />
        </mxCell>
        <mxCell id="u1XY0rb8eev2db07J_sc-23" value="Deploy&lt;br&gt;STAGING System" style="rounded=0;whiteSpace=wrap;html=1;" vertex="1" parent="1">
          <mxGeometry x="-220" y="240" width="110" height="39.52" as="geometry" />
        </mxCell>
        <mxCell id="u1XY0rb8eev2db07J_sc-25" style="edgeStyle=orthogonalEdgeStyle;rounded=0;orthogonalLoop=1;jettySize=auto;html=1;entryX=0.5;entryY=1;entryDx=0;entryDy=0;" edge="1" parent="1" target="u1XY0rb8eev2db07J_sc-29">
          <mxGeometry relative="1" as="geometry">
            <mxPoint x="-300" y="480" as="sourcePoint" />
          </mxGeometry>
        </mxCell>
        <mxCell id="u1XY0rb8eev2db07J_sc-26" style="edgeStyle=orthogonalEdgeStyle;rounded=0;orthogonalLoop=1;jettySize=auto;html=1;entryX=0.5;entryY=1;entryDx=0;entryDy=0;" edge="1" parent="1">
          <mxGeometry relative="1" as="geometry">
            <mxPoint x="-250.38" y="480" as="sourcePoint" />
            <mxPoint x="-250.63" y="439.52000000000004" as="targetPoint" />
          </mxGeometry>
        </mxCell>
        <mxCell id="u1XY0rb8eev2db07J_sc-27" style="edgeStyle=orthogonalEdgeStyle;rounded=0;orthogonalLoop=1;jettySize=auto;html=1;entryX=0.5;entryY=1;entryDx=0;entryDy=0;" edge="1" parent="1" target="u1XY0rb8eev2db07J_sc-31">
          <mxGeometry relative="1" as="geometry">
            <mxPoint x="-195" y="480" as="sourcePoint" />
          </mxGeometry>
        </mxCell>
        <mxCell id="u1XY0rb8eev2db07J_sc-28" value="Gitlab CI&lt;br&gt;(PUSH on PROD)" style="rounded=0;whiteSpace=wrap;html=1;fillColor=#60a917;fontColor=#ffffff;strokeColor=#2D7600;" vertex="1" parent="1">
          <mxGeometry x="-320" y="480.48" width="150" height="39.52" as="geometry" />
        </mxCell>
        <mxCell id="u1XY0rb8eev2db07J_sc-29" value="Build" style="rounded=0;whiteSpace=wrap;html=1;" vertex="1" parent="1">
          <mxGeometry x="-320" y="400" width="40" height="39.52" as="geometry" />
        </mxCell>
        <mxCell id="u1XY0rb8eev2db07J_sc-30" value="Test" style="rounded=0;whiteSpace=wrap;html=1;" vertex="1" parent="1">
          <mxGeometry x="-270" y="400" width="39.5" height="39.52" as="geometry" />
        </mxCell>
        <mxCell id="u1XY0rb8eev2db07J_sc-31" value="Deploy&lt;br&gt;PROD System" style="rounded=0;whiteSpace=wrap;html=1;" vertex="1" parent="1">
          <mxGeometry x="-220" y="400" width="110" height="39.52" as="geometry" />
        </mxCell>
        <mxCell id="u1XY0rb8eev2db07J_sc-50" style="edgeStyle=orthogonalEdgeStyle;rounded=0;orthogonalLoop=1;jettySize=auto;html=1;entryX=0.002;entryY=0.369;entryDx=0;entryDy=0;entryPerimeter=0;" edge="1" parent="1" source="u1XY0rb8eev2db07J_sc-34" target="u1XY0rb8eev2db07J_sc-39">
          <mxGeometry relative="1" as="geometry" />
        </mxCell>
        <mxCell id="u1XY0rb8eev2db07J_sc-34" value="Write Code Review (Python)&lt;br&gt;&lt;div style=&quot;text-align: left;&quot;&gt;&lt;ul&gt;&lt;li&gt;&lt;span style=&quot;background-color: transparent; color: light-dark(rgb(0, 0, 0), rgb(255, 255, 255));&quot;&gt;&lt;font style=&quot;font-size: 9px;&quot;&gt;Prompt an AI-Workflow Server schicken&lt;/font&gt;&lt;/span&gt;&lt;/li&gt;&lt;li&gt;&lt;span style=&quot;background-color: transparent; color: light-dark(rgb(0, 0, 0), rgb(255, 255, 255));&quot;&gt;&lt;font style=&quot;font-size: 9px;&quot;&gt;Gitlab Nachricht schreiben&lt;/font&gt;&lt;/span&gt;&lt;/li&gt;&lt;/ul&gt;&lt;/div&gt;" style="rounded=0;whiteSpace=wrap;html=1;" vertex="1" parent="1">
          <mxGeometry x="-80" y="560" width="190" height="110" as="geometry" />
        </mxCell>
        <mxCell id="u1XY0rb8eev2db07J_sc-35" value="Create Test Cases (Python)&lt;br&gt;&lt;div style=&quot;text-align: left;&quot;&gt;&lt;ul&gt;&lt;li&gt;&lt;span style=&quot;background-color: transparent; color: light-dark(rgb(0, 0, 0), rgb(255, 255, 255));&quot;&gt;&lt;font style=&quot;font-size: 9px;&quot;&gt;Prompt an AI-Workflow Server schicken&lt;/font&gt;&lt;/span&gt;&lt;/li&gt;&lt;li&gt;&lt;span style=&quot;background-color: transparent; color: light-dark(rgb(0, 0, 0), rgb(255, 255, 255));&quot;&gt;&lt;font style=&quot;font-size: 9px;&quot;&gt;Gitlab Nachricht schreiben&lt;/font&gt;&lt;/span&gt;&lt;/li&gt;&lt;/ul&gt;&lt;/div&gt;" style="rounded=0;whiteSpace=wrap;html=1;" vertex="1" parent="1">
          <mxGeometry x="-80" y="690" width="190" height="110" as="geometry" />
        </mxCell>
        <mxCell id="u1XY0rb8eev2db07J_sc-47" style="edgeStyle=orthogonalEdgeStyle;rounded=0;orthogonalLoop=1;jettySize=auto;html=1;entryX=0;entryY=0.5;entryDx=0;entryDy=0;" edge="1" parent="1" source="u1XY0rb8eev2db07J_sc-39" target="u1XY0rb8eev2db07J_sc-40">
          <mxGeometry relative="1" as="geometry" />
        </mxCell>
        <mxCell id="u1XY0rb8eev2db07J_sc-49" style="edgeStyle=orthogonalEdgeStyle;rounded=0;orthogonalLoop=1;jettySize=auto;html=1;entryX=0.5;entryY=1;entryDx=0;entryDy=0;" edge="1" parent="1" source="u1XY0rb8eev2db07J_sc-39" target="u1XY0rb8eev2db07J_sc-48">
          <mxGeometry relative="1" as="geometry" />
        </mxCell>
        <mxCell id="u1XY0rb8eev2db07J_sc-39" value="AI Workflow Server&lt;br&gt;&lt;div&gt;(REST-API)&lt;br&gt;&lt;div style=&quot;text-align: left;&quot;&gt;&lt;ul&gt;&lt;li&gt;&lt;span style=&quot;background-color: transparent;&quot;&gt;&lt;font style=&quot;font-size: 9px; color: rgb(255, 255, 255);&quot;&gt;Erstellt Workflow aus Prompt (Welche Tools / Ressourcen sollen vom MCP Server verwendet werden)&lt;/font&gt;&lt;/span&gt;&lt;/li&gt;&lt;li&gt;&lt;span style=&quot;background-color: transparent;&quot;&gt;&lt;font style=&quot;font-size: 9px; color: rgb(255, 255, 255);&quot;&gt;Schritt für Schritt ausführen (Entweder Letzten Promt in LLM mit Schritt geben oder Tool/Ressource von MCP ausführen/auslesen)&lt;/font&gt;&lt;/span&gt;&lt;/li&gt;&lt;li&gt;&lt;span style=&quot;background-color: transparent;&quot;&gt;&lt;font style=&quot;font-size: 9px; color: rgb(255, 255, 255);&quot;&gt;Letzten Promt zurückgeben&lt;/font&gt;&lt;/span&gt;&lt;/li&gt;&lt;/ul&gt;&lt;/div&gt;&lt;/div&gt;" style="rounded=0;whiteSpace=wrap;html=1;fillColor=#1ba1e2;fontColor=#ffffff;strokeColor=#006EAF;" vertex="1" parent="1">
          <mxGeometry x="240" y="560" width="270" height="240" as="geometry" />
        </mxCell>
        <mxCell id="u1XY0rb8eev2db07J_sc-40" value="MCP Server" style="rounded=0;whiteSpace=wrap;html=1;fillColor=#1ba1e2;fontColor=#ffffff;strokeColor=#006EAF;" vertex="1" parent="1">
          <mxGeometry x="560" y="600" width="440" height="60" as="geometry" />
        </mxCell>
        <mxCell id="u1XY0rb8eev2db07J_sc-45" style="edgeStyle=orthogonalEdgeStyle;rounded=0;orthogonalLoop=1;jettySize=auto;html=1;entryX=0.5;entryY=1;entryDx=0;entryDy=0;" edge="1" parent="1" source="u1XY0rb8eev2db07J_sc-41" target="u1XY0rb8eev2db07J_sc-40">
          <mxGeometry relative="1" as="geometry" />
        </mxCell>
        <mxCell id="u1XY0rb8eev2db07J_sc-41" value="Gitlab Server&lt;br&gt;Plugin" style="rounded=0;whiteSpace=wrap;html=1;fillColor=#f0a30a;fontColor=#000000;strokeColor=#BD7000;" vertex="1" parent="1">
          <mxGeometry x="720" y="740" width="120" height="60" as="geometry" />
        </mxCell>
        <mxCell id="u1XY0rb8eev2db07J_sc-46" style="edgeStyle=orthogonalEdgeStyle;rounded=0;orthogonalLoop=1;jettySize=auto;html=1;entryX=0.864;entryY=0.969;entryDx=0;entryDy=0;entryPerimeter=0;" edge="1" parent="1" source="u1XY0rb8eev2db07J_sc-42" target="u1XY0rb8eev2db07J_sc-40">
          <mxGeometry relative="1" as="geometry">
            <mxPoint x="940" y="665" as="targetPoint" />
          </mxGeometry>
        </mxCell>
        <mxCell id="u1XY0rb8eev2db07J_sc-42" value="Clean Code&lt;br&gt;Buch" style="rounded=0;whiteSpace=wrap;html=1;fillColor=#f0a30a;fontColor=#000000;strokeColor=#BD7000;" vertex="1" parent="1">
          <mxGeometry x="880" y="740" width="120" height="60" as="geometry" />
        </mxCell>
        <mxCell id="u1XY0rb8eev2db07J_sc-43" value="Coding Style&lt;br&gt;Websites" style="rounded=0;whiteSpace=wrap;html=1;fillColor=#f0a30a;fontColor=#000000;strokeColor=#BD7000;" vertex="1" parent="1">
          <mxGeometry x="560" y="740" width="120" height="60" as="geometry" />
        </mxCell>
        <mxCell id="u1XY0rb8eev2db07J_sc-44" style="edgeStyle=orthogonalEdgeStyle;rounded=0;orthogonalLoop=1;jettySize=auto;html=1;entryX=0.137;entryY=0.968;entryDx=0;entryDy=0;entryPerimeter=0;" edge="1" parent="1" source="u1XY0rb8eev2db07J_sc-43" target="u1XY0rb8eev2db07J_sc-40">
          <mxGeometry relative="1" as="geometry" />
        </mxCell>
        <mxCell id="u1XY0rb8eev2db07J_sc-48" value="GEMINI LLM&lt;br&gt;(API)" style="rounded=0;whiteSpace=wrap;html=1;fillColor=#fa6800;fontColor=#000000;strokeColor=#C73500;" vertex="1" parent="1">
          <mxGeometry x="315" y="400" width="120" height="60" as="geometry" />
        </mxCell>
        <mxCell id="u1XY0rb8eev2db07J_sc-51" style="edgeStyle=orthogonalEdgeStyle;rounded=0;orthogonalLoop=1;jettySize=auto;html=1;entryX=0.002;entryY=0.619;entryDx=0;entryDy=0;entryPerimeter=0;" edge="1" parent="1" source="u1XY0rb8eev2db07J_sc-35" target="u1XY0rb8eev2db07J_sc-39">
          <mxGeometry relative="1" as="geometry" />
        </mxCell>
        <mxCell id="u1XY0rb8eev2db07J_sc-52" style="edgeStyle=orthogonalEdgeStyle;rounded=0;orthogonalLoop=1;jettySize=auto;html=1;entryX=1.026;entryY=0.963;entryDx=0;entryDy=0;entryPerimeter=0;exitX=0.5;exitY=1;exitDx=0;exitDy=0;" edge="1" parent="1" source="u1XY0rb8eev2db07J_sc-41" target="u1XY0rb8eev2db07J_sc-4">
          <mxGeometry relative="1" as="geometry">
            <Array as="points">
              <mxPoint x="780" y="927" />
            </Array>
          </mxGeometry>
        </mxCell>
      </root>
    </mxGraphModel>
  </diagram>
</mxfile>
